HIERARCHY
ROOT Joint1
{
	OFFSET 0.000000 0.000000 0.000000
	CHANNELS 6 Xposition Yposition Zposition Xrotation Yrotation Zrotation
	JOINT Joint2
	{
		OFFSET -0.000000 0.000000 1.456275
		CHANNELS 6 Xposition Yposition Zposition Xrotation Yrotation Zrotation
		JOINT Joint3
		{
			OFFSET -0.000000 0.000002 1.471446
			CHANNELS 6 Xposition Yposition Zposition Xrotation Yrotation Zrotation
			JOINT Joint4
			{
				OFFSET 0.625745 0.000000 0.917755
				CHANNELS 6 Xposition Yposition Zposition Xrotation Yrotation Zrotation
				JOINT Joint5
				{
					OFFSET -0.629534 0.000001 0.940221
					CHANNELS 6 Xposition Yposition Zposition Xrotation Yrotation Zrotation
					JOINT Joint6
					{
						OFFSET -0.000001 0.113772 1.960660
						CHANNELS 6 Xposition Yposition Zposition Xrotation Yrotation Zrotation
						JOINT Joint7
						{
							OFFSET -0.669733 -0.113771 0.388340
							CHANNELS 6 Xposition Yposition Zposition Xrotation Yrotation Zrotation
							End Site
							{
								OFFSET 0.005509 0.005509 0.438980
							}
						}
					}
				}
			}
		}
	}
}
MOTION
Frames: 17
Frame Time: 0.041667
0.000000 0.000000 0.000000 -0.000000 1.019410 -0.008655 -0.000000 0.000000 1.456275 0.000000 -44.957996 0.000000 -0.000000 0.000002 1.471446 0.000000 -1.133461 0.000618 0.625745 0.000000 0.917755 0.000004 134.989919 -0.000001 -0.629534 0.000001 0.940221 0.000000 1.709736 -0.030522 -0.000000 0.113772 1.960661 -88.309012 89.964834 -0.003585 -0.669733 -0.113771 0.388340 -0.704399 3.566197 134.920647 
0.000000 0.000000 0.000000 -0.000000 1.019410 -0.024891 -0.000000 -0.000000 1.456275 0.000000 -44.899256 0.000000 -0.000000 0.000002 1.471446 -0.000000 -1.133457 0.084256 0.625744 0.000000 0.917755 0.000004 134.898149 -0.000001 -0.629534 0.000001 0.940221 -0.000000 1.709736 -0.078011 -0.000000 0.113772 1.960661 -88.306102 89.917248 -0.001472 -0.669733 -0.113771 0.388340 -0.702010 3.566191 134.786174 
0.000000 0.000000 0.000000 -0.000000 1.019410 -0.051145 -0.000000 -0.000000 1.456275 0.000000 -44.804269 0.000000 -0.000001 0.000002 1.471445 0.000000 -1.133461 0.219496 0.625744 0.000000 0.917755 0.000004 134.749742 -0.000001 -0.629534 0.000001 0.940221 0.000000 1.709737 -0.154800 -0.000000 0.113772 1.960661 -88.305023 89.840313 -0.000835 -0.669733 -0.113771 0.388340 -0.698148 3.566168 134.568756 
0.000000 0.000000 0.000000 -0.000000 1.019410 -0.086755 -0.000000 -0.000000 1.456275 0.000000 -44.675427 0.000000 -0.000000 0.000002 1.471446 0.000000 -1.133459 0.402935 0.625745 0.000000 0.917755 0.000004 134.548457 -0.000001 -0.629534 0.000001 0.940221 0.000000 1.709737 -0.258957 -0.000001 0.113772 1.960661 -88.304606 89.735947 -0.000463 -0.669733 -0.113771 0.388339 -0.692910 3.566116 134.273842 
0.000000 0.000000 0.000000 -0.000000 1.019410 -0.131061 -0.000000 -0.000000 1.456275 -0.000000 -44.515119 0.000000 -0.000000 0.000002 1.471446 -0.000000 -1.133458 0.631174 0.625745 0.000000 0.917755 0.000004 134.298021 -0.000001 -0.629534 0.000001 0.940221 -0.000000 1.709737 -0.388550 -0.000000 0.113772 1.960661 -88.304360 89.606099 -0.000320 -0.669733 -0.113771 0.388341 -0.686394 3.566013 133.906911 
0.000000 0.000000 0.000000 -0.000000 1.019410 -0.183404 -0.000000 0.000000 1.456275 0.000000 -44.325745 0.000000 -0.000000 0.000002 1.471446 0.000000 -1.133455 0.900809 0.625745 0.000000 0.917755 0.000004 134.002164 -0.000001 -0.629534 0.000001 0.940221 -0.000000 1.709737 -0.541648 -0.000001 0.113772 1.960661 -88.304224 89.452699 -0.000230 -0.669733 -0.113771 0.388340 -0.678696 3.565838 133.473412 
0.000000 0.000000 0.000000 -0.000000 1.019410 -0.243123 -0.000000 -0.000000 1.456275 0.000000 -44.109676 -0.000000 -0.000000 0.000002 1.471446 -0.000000 -1.133464 1.208442 0.625744 0.000000 0.917755 0.000004 133.664603 -0.000001 -0.629534 0.000001 0.940221 0.000000 1.709737 -0.716321 -0.000001 0.113772 1.960660 -88.304142 89.277683 -0.000172 -0.669733 -0.113771 0.388339 -0.669915 3.565566 132.978838 
0.000000 0.000000 0.000000 -0.000000 1.019410 -0.309557 -0.000000 0.000000 1.456275 0.000000 -43.869311 0.000000 -0.000000 0.000002 1.471446 0.000000 -1.133462 1.550669 0.625744 0.000000 0.917755 0.000004 133.289079 -0.000001 -0.629534 0.000001 0.940221 0.000000 1.709736 -0.910637 -0.000001 0.113772 1.960661 -88.304094 89.082981 -0.000131 -0.669733 -0.113771 0.388339 -0.660151 3.565175 132.428666 
0.000000 0.000000 0.000000 -0.000000 1.019410 -0.382047 -0.000000 0.000000 1.456275 0.000000 -43.607042 -0.000000 -0.000000 0.000002 1.471446 -0.000000 -1.133459 1.924089 0.625745 0.000000 0.917755 0.000004 132.879336 -0.000001 -0.629534 0.000001 0.940221 -0.000000 1.709737 -1.122664 -0.000000 0.113772 1.960660 -88.304053 88.870535 -0.000108 -0.669733 -0.113771 0.388340 -0.649501 3.564642 131.828306 
0.000000 0.000000 0.000000 -0.000000 1.019410 -0.459932 -0.000000 -0.000000 1.456275 0.000000 -43.325242 -0.000000 -0.000000 0.000002 1.471446 0.000000 -1.133456 2.325302 0.625745 0.000000 0.917755 0.000003 132.439089 -0.000001 -0.629533 0.000001 0.940221 -0.000000 1.709736 -1.350471 -0.000001 0.113772 1.960660 -88.304019 88.642277 -0.000090 -0.669733 -0.113771 0.388340 -0.638065 3.563945 131.183277 
0.000000 0.000000 0.000000 -0.000000 1.019410 -0.542552 -0.000000 0.000000 1.456275 -0.000000 -43.026322 -0.000000 -0.000000 0.000002 1.471446 0.000000 -1.133457 2.750905 0.625744 0.000000 0.917755 0.000004 131.972082 -0.000001 -0.629533 0.000001 0.940221 0.000000 1.709736 -1.592128 -0.000001 0.113772 1.960660 -88.303998 88.400140 -0.000078 -0.669733 -0.113771 0.388340 -0.625944 3.563065 130.499056 
0.000000 0.000000 0.000000 -0.000000 1.019410 -0.629246 -0.000000 -0.000000 1.456275 -0.000000 -42.712656 -0.000000 -0.000000 0.000002 1.471446 -0.000000 -1.133458 3.197498 0.625745 0.000000 0.917755 0.000004 131.482057 -0.000001 -0.629533 0.000001 0.940221 -0.000000 1.709736 -1.845702 0.000000 0.113772 1.960660 -88.303985 88.146064 -0.000067 -0.669733 -0.113771 0.388339 -0.613237 3.561988 129.781066 
0.000000 0.000000 0.000000 -0.000000 1.019410 -0.719621 -0.000000 0.000000 1.456275 -0.000000 -42.385675 0.000000 -0.000000 0.000002 1.471445 0.000000 -1.133458 3.663047 0.625744 0.000000 0.917755 0.000004 130.971227 -0.000001 -0.629534 0.000001 0.940221 0.000000 1.709737 -2.110041 -0.000000 0.113772 1.960660 -88.303971 87.881203 -0.000058 -0.669733 -0.113771 0.388339 -0.600006 3.560695 129.032628 
0.000000 0.000000 0.000000 -0.000000 1.019410 -0.814343 -0.000000 0.000000 1.456275 -0.000000 -42.042970 -0.000000 -0.000000 0.000002 1.471445 0.000000 -1.133455 4.150998 0.625745 0.000000 0.917755 0.000004 130.435808 -0.000001 -0.629534 0.000001 0.940221 -0.000000 1.709736 -2.387097 -0.000001 0.113772 1.960660 -88.303964 87.603603 -0.000051 -0.669733 -0.113771 0.388340 -0.586158 3.559153 128.248153 
0.000000 0.000000 0.000000 -0.000000 1.019410 -0.914348 -0.000000 0.000000 1.456275 -0.000000 -41.681134 -0.000000 -0.000000 0.000002 1.471445 -0.000000 -1.133458 4.666156 0.625745 0.000000 0.917755 0.000004 129.870542 -0.000001 -0.629534 0.000001 0.940221 0.000000 1.709737 -2.679604 -0.000001 0.113772 1.960660 -88.303950 87.310513 -0.000047 -0.669733 -0.113771 0.388339 -0.571562 3.557323 127.419938 
0.000000 0.000000 0.000000 -0.000000 1.019410 -1.020569 -0.000000 0.000000 1.456275 0.000000 -41.296826 -0.000000 -0.000000 0.000002 1.471446 -0.000000 -1.133460 5.213339 0.625745 0.000000 0.917755 0.000003 129.270127 -0.000001 -0.629534 0.000001 0.940221 0.000000 1.709736 -2.990292 -0.000001 0.113772 1.960661 -88.303950 86.999214 -0.000041 -0.669733 -0.113771 0.388340 -0.556090 3.555146 126.540265 
0.000000 0.000000 0.000000 -0.000000 1.019410 -1.133941 -0.000000 0.000000 1.456275 0.000000 -40.886636 -0.000000 -0.000000 0.000002 1.471446 -0.000000 -1.133463 5.797352 0.625745 0.000000 0.917755 0.000004 128.629292 -0.000001 -0.629534 0.000001 0.940221 -0.000000 1.709736 -3.321895 -0.000001 0.113772 1.960660 -88.303937 86.666952 -0.000038 -0.669733 -0.113771 0.388340 -0.539615 3.552563 125.601360 
